<?xml version="1.0" encoding="UTF-8"?>
<svg id="Calque_1" data-name="Calque 1" xmlns="http://www.w3.org/2000/svg" viewBox="0 0 107.34 78.27">
  <defs>
    <style>
      .cls-1 {
        fill: #d77d56;
        stroke-width: 0px;
      }
    </style>
  </defs>
  <path class="cls-1" d="m103.61,66.67l-37.74-21.79c-1.59-.92-2.42-2.78-1.98-4.57,3.33-13.5-2.46-28.16-15.08-35.44C41.41.59,32.77-.55,24.5,1.66c-8.26,2.22-15.17,7.52-19.45,14.93C-3.78,31.89,1.48,51.52,16.78,60.35c5.04,2.91,10.54,4.29,15.97,4.29s11.01-1.44,15.83-4.16c2.32-1.3,4.49-2.9,6.45-4.79,1.33-1.28,3.35-1.49,4.95-.57l37.73,21.79c.94.54,1.95.8,2.96.8,2.04,0,4.03-1.06,5.13-2.96,1.64-2.83.66-6.45-2.17-8.08Zm-53.32-23.95c-2.7,4.67-7.06,8.01-12.27,9.41-5.21,1.4-10.66.68-15.34-2.02-9.65-5.57-12.96-17.95-7.39-27.6,3.74-6.48,10.55-10.1,17.54-10.1,3.42,0,6.89.87,10.06,2.7,9.65,5.58,12.97,17.96,7.4,27.61Z"/>
</svg>